<svg width="200" height="22" viewBox="0 0 200 22" fill="none" xmlns="http://www.w3.org/2000/svg">
<path d="M9.52 2.04V11.84C9.52 13.2 9.12667 14.26 8.34 15.02C7.55333 15.7667 6.5 16.14 5.18 16.14C3.84667 16.14 2.76667 15.7533 1.94 14.98C1.12667 14.2067 0.72 13.1267 0.72 11.74H3.52C3.53333 12.34 3.67333 12.8067 3.94 13.14C4.22 13.4733 4.62 13.64 5.14 13.64C5.64667 13.64 6.03333 13.48 6.3 13.16C6.56667 12.84 6.7 12.4 6.7 11.84V2.04H9.52ZM17.7063 16.18C16.6396 16.18 15.6796 15.9467 14.8263 15.48C13.9729 15 13.2996 14.3267 12.8063 13.46C12.3263 12.5933 12.0863 11.5933 12.0863 10.46C12.0863 9.32667 12.3329 8.32667 12.8263 7.46C13.3329 6.59333 14.0196 5.92667 14.8863 5.46C15.7529 4.98 16.7196 4.74 17.7863 4.74C18.8529 4.74 19.8196 4.98 20.6863 5.46C21.5529 5.92667 22.2329 6.59333 22.7263 7.46C23.2329 8.32667 23.4863 9.32667 23.4863 10.46C23.4863 11.5933 23.2263 12.5933 22.7062 13.46C22.1996 14.3267 21.5063 15 20.6263 15.48C19.7596 15.9467 18.7863 16.18 17.7063 16.18ZM17.7063 13.74C18.2129 13.74 18.6863 13.62 19.1263 13.38C19.5796 13.1267 19.9396 12.7533 20.2063 12.26C20.4729 11.7667 20.6063 11.1667 20.6063 10.46C20.6063 9.40667 20.3263 8.6 19.7663 8.04C19.2196 7.46667 18.5463 7.18 17.7463 7.18C16.9463 7.18 16.2729 7.46667 15.7263 8.04C15.1929 8.6 14.9263 9.40667 14.9263 10.46C14.9263 11.5133 15.1863 12.3267 15.7063 12.9C16.2396 13.46 16.9063 13.74 17.7063 13.74ZM29.7802 16.18C28.8735 16.18 28.0602 16.02 27.3402 15.7C26.6202 15.3667 26.0468 14.92 25.6202 14.36C25.2068 13.8 24.9802 13.18 24.9402 12.5H27.7602C27.8135 12.9267 28.0202 13.28 28.3802 13.56C28.7535 13.84 29.2135 13.98 29.7602 13.98C30.2935 13.98 30.7068 13.8733 31.0002 13.66C31.3068 13.4467 31.4602 13.1733 31.4602 12.84C31.4602 12.48 31.2735 12.2133 30.9002 12.04C30.5402 11.8533 29.9602 11.6533 29.1602 11.44C28.3335 11.24 27.6535 11.0333 27.1202 10.82C26.6002 10.6067 26.1468 10.28 25.7602 9.84C25.3868 9.4 25.2002 8.80667 25.2002 8.06C25.2002 7.44667 25.3735 6.88667 25.7202 6.38C26.0802 5.87333 26.5868 5.47333 27.2402 5.18C27.9068 4.88667 28.6868 4.74 29.5802 4.74C30.9002 4.74 31.9535 5.07333 32.7402 5.74C33.5268 6.39333 33.9602 7.28 34.0402 8.4H31.3602C31.3202 7.96 31.1335 7.61333 30.8002 7.36C30.4802 7.09333 30.0468 6.96 29.5002 6.96C28.9935 6.96 28.6002 7.05333 28.3202 7.24C28.0535 7.42667 27.9202 7.68667 27.9202 8.02C27.9202 8.39333 28.1068 8.68 28.4802 8.88C28.8535 9.06667 29.4335 9.26 30.2202 9.46C31.0202 9.66 31.6802 9.86667 32.2002 10.08C32.7202 10.2933 33.1668 10.6267 33.5402 11.08C33.9268 11.52 34.1268 12.1067 34.1402 12.84C34.1402 13.48 33.9602 14.0533 33.6002 14.56C33.2535 15.0667 32.7468 15.4667 32.0802 15.76C31.4268 16.04 30.6602 16.18 29.7802 16.18ZM42.6786 4.76C43.5186 4.76 44.2653 4.94667 44.9186 5.32C45.5719 5.68 46.0786 6.22 46.4386 6.94C46.8119 7.64667 46.9986 8.5 46.9986 9.5V16H44.1986V9.88C44.1986 9 43.9786 8.32667 43.5386 7.86C43.0986 7.38 42.4986 7.14 41.7386 7.14C40.9653 7.14 40.3519 7.38 39.8986 7.86C39.4586 8.32667 39.2386 9 39.2386 9.88V16H36.4386V1.2H39.2386V6.3C39.5986 5.82 40.0786 5.44667 40.6786 5.18C41.2786 4.9 41.9453 4.76 42.6786 4.76ZM52.4613 13.78H57.0613V16H49.6613V2.04H52.4613V13.78ZM69.1409 10.22C69.1409 10.62 69.1143 10.98 69.0609 11.3H60.9609C61.0276 12.1 61.3076 12.7267 61.8009 13.18C62.2943 13.6333 62.9009 13.86 63.6209 13.86C64.6609 13.86 65.4009 13.4133 65.8409 12.52H68.8609C68.5409 13.5867 67.9276 14.4667 67.0209 15.16C66.1143 15.84 65.0009 16.18 63.6809 16.18C62.6143 16.18 61.6543 15.9467 60.8009 15.48C59.9609 15 59.3009 14.3267 58.8209 13.46C58.3543 12.5933 58.1209 11.5933 58.1209 10.46C58.1209 9.31333 58.3543 8.30667 58.8209 7.44C59.2876 6.57333 59.9409 5.90667 60.7809 5.44C61.6209 4.97333 62.5876 4.74 63.6809 4.74C64.7343 4.74 65.6743 4.96667 66.5009 5.42C67.3409 5.87333 67.9876 6.52 68.4409 7.36C68.9076 8.18667 69.1409 9.14 69.1409 10.22ZM66.2409 9.42C66.2276 8.7 65.9676 8.12667 65.4609 7.7C64.9543 7.26 64.3343 7.04 63.6009 7.04C62.9076 7.04 62.3209 7.25333 61.8409 7.68C61.3743 8.09333 61.0876 8.67333 60.9809 9.42H66.2409ZM81.4847 10.22C81.4847 10.62 81.458 10.98 81.4047 11.3H73.3047C73.3714 12.1 73.6514 12.7267 74.1447 13.18C74.638 13.6333 75.2447 13.86 75.9647 13.86C77.0047 13.86 77.7447 13.4133 78.1847 12.52H81.2047C80.8847 13.5867 80.2714 14.4667 79.3647 15.16C78.458 15.84 77.3447 16.18 76.0247 16.18C74.958 16.18 73.998 15.9467 73.1447 15.48C72.3047 15 71.6447 14.3267 71.1647 13.46C70.698 12.5933 70.4647 11.5933 70.4647 10.46C70.4647 9.31333 70.698 8.30667 71.1647 7.44C71.6314 6.57333 72.2847 5.90667 73.1247 5.44C73.9647 4.97333 74.9314 4.74 76.0247 4.74C77.078 4.74 78.018 4.96667 78.8447 5.42C79.6847 5.87333 80.3314 6.52 80.7847 7.36C81.2514 8.18667 81.4847 9.14 81.4847 10.22ZM78.5847 9.42C78.5714 8.7 78.3114 8.12667 77.8047 7.7C77.298 7.26 76.678 7.04 75.9447 7.04C75.2514 7.04 74.6647 7.25333 74.1847 7.68C73.718 8.09333 73.4314 8.67333 73.3247 9.42H78.5847ZM90.7284 16L87.6484 10.56H86.3284V16H83.5284V2.04H88.7684C89.8484 2.04 90.7684 2.23333 91.5284 2.62C92.2884 2.99333 92.8551 3.50667 93.2284 4.16C93.6151 4.8 93.8084 5.52 93.8084 6.32C93.8084 7.24 93.5418 8.07333 93.0084 8.82C92.4751 9.55333 91.6818 10.06 90.6284 10.34L93.9684 16H90.7284ZM86.3284 8.46H88.6684C89.4284 8.46 89.9951 8.28 90.3684 7.92C90.7418 7.54667 90.9284 7.03333 90.9284 6.38C90.9284 5.74 90.7418 5.24667 90.3684 4.9C89.9951 4.54 89.4284 4.36 88.6684 4.36H86.3284V8.46ZM106.641 10.22C106.641 10.62 106.614 10.98 106.561 11.3H98.4609C98.5276 12.1 98.8076 12.7267 99.3009 13.18C99.7943 13.6333 100.401 13.86 101.121 13.86C102.161 13.86 102.901 13.4133 103.341 12.52H106.361C106.041 13.5867 105.428 14.4667 104.521 15.16C103.614 15.84 102.501 16.18 101.181 16.18C100.114 16.18 99.1543 15.9467 98.3009 15.48C97.4609 15 96.8009 14.3267 96.3209 13.46C95.8543 12.5933 95.6209 11.5933 95.6209 10.46C95.6209 9.31333 95.8543 8.30667 96.3209 7.44C96.7876 6.57333 97.4409 5.90667 98.2809 5.44C99.1209 4.97333 100.088 4.74 101.181 4.74C102.234 4.74 103.174 4.96667 104.001 5.42C104.841 5.87333 105.488 6.52 105.941 7.36C106.408 8.18667 106.641 9.14 106.641 10.22ZM103.741 9.42C103.728 8.7 103.468 8.12667 102.961 7.7C102.454 7.26 101.834 7.04 101.101 7.04C100.408 7.04 99.8209 7.25333 99.3409 7.68C98.8743 8.09333 98.5876 8.67333 98.4809 9.42H103.741ZM107.965 10.46C107.965 9.31333 108.198 8.31333 108.665 7.46C109.131 6.59333 109.778 5.92667 110.605 5.46C111.431 4.98 112.378 4.74 113.445 4.74C114.818 4.74 115.951 5.08667 116.845 5.78C117.751 6.46 118.358 7.42 118.665 8.66H115.645C115.485 8.18 115.211 7.80667 114.825 7.54C114.451 7.26 113.985 7.12 113.425 7.12C112.625 7.12 111.991 7.41333 111.525 8C111.058 8.57333 110.825 9.39333 110.825 10.46C110.825 11.5133 111.058 12.3333 111.525 12.92C111.991 13.4933 112.625 13.78 113.425 13.78C114.558 13.78 115.298 13.2733 115.645 12.26H118.665C118.358 13.46 117.751 14.4133 116.845 15.12C115.938 15.8267 114.805 16.18 113.445 16.18C112.378 16.18 111.431 15.9467 110.605 15.48C109.778 15 109.131 14.3333 108.665 13.48C108.198 12.6133 107.965 11.6067 107.965 10.46ZM122.136 3.6C121.643 3.6 121.229 3.44667 120.896 3.14C120.576 2.82 120.416 2.42667 120.416 1.96C120.416 1.49333 120.576 1.10667 120.896 0.799999C121.229 0.479999 121.643 0.319999 122.136 0.319999C122.629 0.319999 123.036 0.479999 123.356 0.799999C123.689 1.10667 123.856 1.49333 123.856 1.96C123.856 2.42667 123.689 2.82 123.356 3.14C123.036 3.44667 122.629 3.6 122.136 3.6ZM123.516 4.92V16H120.716V4.92H123.516ZM129.082 6.52C129.442 6.01333 129.936 5.59333 130.562 5.26C131.202 4.91333 131.929 4.74 132.742 4.74C133.689 4.74 134.542 4.97333 135.302 5.44C136.076 5.90667 136.682 6.57333 137.122 7.44C137.576 8.29333 137.802 9.28667 137.802 10.42C137.802 11.5533 137.576 12.56 137.122 13.44C136.682 14.3067 136.076 14.98 135.302 15.46C134.542 15.94 133.689 16.18 132.742 16.18C131.929 16.18 131.209 16.0133 130.582 15.68C129.969 15.3467 129.469 14.9267 129.082 14.42V21.28H126.282V4.92H129.082V6.52ZM134.942 10.42C134.942 9.75333 134.802 9.18 134.522 8.7C134.256 8.20667 133.896 7.83333 133.442 7.58C133.002 7.32667 132.522 7.2 132.002 7.2C131.496 7.2 131.016 7.33333 130.562 7.6C130.122 7.85333 129.762 8.22667 129.482 8.72C129.216 9.21333 129.082 9.79333 129.082 10.46C129.082 11.1267 129.216 11.7067 129.482 12.2C129.762 12.6933 130.122 13.0733 130.562 13.34C131.016 13.5933 131.496 13.72 132.002 13.72C132.522 13.72 133.002 13.5867 133.442 13.32C133.896 13.0533 134.256 12.6733 134.522 12.18C134.802 11.6867 134.942 11.1 134.942 10.42ZM150.137 10.22C150.137 10.62 150.11 10.98 150.057 11.3H141.957C142.024 12.1 142.304 12.7267 142.797 13.18C143.29 13.6333 143.897 13.86 144.617 13.86C145.657 13.86 146.397 13.4133 146.837 12.52H149.857C149.537 13.5867 148.924 14.4667 148.017 15.16C147.11 15.84 145.997 16.18 144.677 16.18C143.61 16.18 142.65 15.9467 141.797 15.48C140.957 15 140.297 14.3267 139.817 13.46C139.35 12.5933 139.117 11.5933 139.117 10.46C139.117 9.31333 139.35 8.30667 139.817 7.44C140.284 6.57333 140.937 5.90667 141.777 5.44C142.617 4.97333 143.584 4.74 144.677 4.74C145.73 4.74 146.67 4.96667 147.497 5.42C148.337 5.87333 148.984 6.52 149.437 7.36C149.904 8.18667 150.137 9.14 150.137 10.22ZM147.237 9.42C147.224 8.7 146.964 8.12667 146.457 7.7C145.95 7.26 145.33 7.04 144.597 7.04C143.904 7.04 143.317 7.25333 142.837 7.68C142.37 8.09333 142.084 8.67333 141.977 9.42H147.237Z" fill="#FF4A22"/>
<path d="M152.921 16.12C152.574 16.12 152.281 16 152.041 15.76C151.801 15.52 151.681 15.2267 151.681 14.88C151.681 14.5333 151.801 14.24 152.041 14C152.281 13.76 152.574 13.64 152.921 13.64C153.254 13.64 153.534 13.76 153.761 14C154.001 14.24 154.121 14.5333 154.121 14.88C154.121 15.2267 154.001 15.52 153.761 15.76C153.534 16 153.254 16.12 152.921 16.12ZM155.86 10.5C155.86 9.36667 156.087 8.38 156.54 7.54C156.993 6.68667 157.62 6.02667 158.42 5.56C159.233 5.09333 160.16 4.86 161.2 4.86C162.547 4.86 163.653 5.18667 164.52 5.84C165.4 6.49333 165.98 7.4 166.26 8.56H164.3C164.113 7.89333 163.747 7.36667 163.2 6.98C162.667 6.59333 162 6.4 161.2 6.4C160.16 6.4 159.32 6.76 158.68 7.48C158.04 8.18667 157.72 9.19333 157.72 10.5C157.72 11.82 158.04 12.84 158.68 13.56C159.32 14.28 160.16 14.64 161.2 14.64C162 14.64 162.667 14.4533 163.2 14.08C163.733 13.7067 164.1 13.1733 164.3 12.48H166.26C165.967 13.6 165.38 14.5 164.5 15.18C163.62 15.8467 162.52 16.18 161.2 16.18C160.16 16.18 159.233 15.9467 158.42 15.48C157.62 15.0133 156.993 14.3533 156.54 13.5C156.087 12.6467 155.86 11.6467 155.86 10.5ZM173.468 16.18C172.442 16.18 171.508 15.9467 170.668 15.48C169.842 15.0133 169.188 14.3533 168.708 13.5C168.242 12.6333 168.008 11.6333 168.008 10.5C168.008 9.38 168.248 8.39333 168.728 7.54C169.222 6.67333 169.888 6.01333 170.728 5.56C171.568 5.09333 172.508 4.86 173.548 4.86C174.588 4.86 175.528 5.09333 176.368 5.56C177.208 6.01333 177.868 6.66667 178.348 7.52C178.842 8.37333 179.088 9.36667 179.088 10.5C179.088 11.6333 178.835 12.6333 178.328 13.5C177.835 14.3533 177.162 15.0133 176.308 15.48C175.455 15.9467 174.508 16.18 173.468 16.18ZM173.468 14.58C174.122 14.58 174.735 14.4267 175.308 14.12C175.882 13.8133 176.342 13.3533 176.688 12.74C177.048 12.1267 177.228 11.38 177.228 10.5C177.228 9.62 177.055 8.87333 176.708 8.26C176.362 7.64667 175.908 7.19333 175.348 6.9C174.788 6.59333 174.182 6.44 173.528 6.44C172.862 6.44 172.248 6.59333 171.688 6.9C171.142 7.19333 170.702 7.64667 170.368 8.26C170.035 8.87333 169.868 9.62 169.868 10.5C169.868 11.3933 170.028 12.1467 170.348 12.76C170.682 13.3733 171.122 13.8333 171.668 14.14C172.215 14.4333 172.815 14.58 173.468 14.58ZM194.661 4.84C195.515 4.84 196.275 5.02 196.941 5.38C197.608 5.72667 198.135 6.25333 198.521 6.96C198.908 7.66667 199.101 8.52667 199.101 9.54V16H197.301V9.8C197.301 8.70667 197.028 7.87333 196.481 7.3C195.948 6.71333 195.221 6.42 194.301 6.42C193.355 6.42 192.601 6.72667 192.041 7.34C191.481 7.94 191.201 8.81333 191.201 9.96V16H189.401V9.8C189.401 8.70667 189.128 7.87333 188.581 7.3C188.048 6.71333 187.321 6.42 186.401 6.42C185.455 6.42 184.701 6.72667 184.141 7.34C183.581 7.94 183.301 8.81333 183.301 9.96V16H181.481V5.04H183.301V6.62C183.661 6.04667 184.141 5.60667 184.741 5.3C185.355 4.99333 186.028 4.84 186.761 4.84C187.681 4.84 188.495 5.04667 189.201 5.46C189.908 5.87333 190.435 6.48 190.781 7.28C191.088 6.50667 191.595 5.90667 192.301 5.48C193.008 5.05333 193.795 4.84 194.661 4.84Z" fill="black"/>
</svg>
